<svg xmlns="http://www.w3.org/2000/svg" viewBox="0 0 512 512">
  <defs>
    <linearGradient id="g" x1="0" y1="0" x2="1" y2="1">
      <stop offset="0" stop-color="#06b6d4"/>
      <stop offset="1" stop-color="#2563eb"/>
    </linearGradient>
  </defs>
  <rect width="512" height="512" rx="112" fill="url(#g)"/>
  <!-- stylized tooth -->
  <path d="M256 118c-38 0-58 22-92 22-30 0-52 26-52 62 0 74 40 96 52 168 4 26 16 32 26 32 22 0 22-56 40-56h52c18 0 18 56 40 56 10 0 22-6 26-32 12-72 52-94 52-168 0-36-22-62-52-62-34 0-54-22-92-22z" fill="#ffffff" opacity="0.96"/>
  <!-- E monogram -->
  <text x="256" y="286" font-family="Georgia, 'Times New Roman', serif" font-weight="bold" font-size="150" fill="#0e7490" text-anchor="middle">E</text>
</svg>
